<?xml version="1.0" encoding="UTF-8" standalone="no"?>
<svg
   xmlns:dc="http://purl.org/dc/elements/1.1/"
   xmlns:cc="http://creativecommons.org/ns#"
   xmlns:rdf="http://www.w3.org/1999/02/22-rdf-syntax-ns#"
   xmlns:svg="http://www.w3.org/2000/svg"
   xmlns="http://www.w3.org/2000/svg"
   xmlns:sodipodi="http://sodipodi.sourceforge.net/DTD/sodipodi-0.dtd"
   xmlns:inkscape="http://www.inkscape.org/namespaces/inkscape"
   version="1.1"
   width="443.18607"
   height="403.88553"
   viewBox="0 0 443.18607 403.88553"
   xml:space="preserve"
   id="svg4824"
   sodipodi:docname="FullColor_1024x1024 Just Logo(modified).svg"
   inkscape:version="0.92.4 (33fec40, 2019-01-16)"><metadata
   id="metadata4828"><rdf:RDF><cc:Work
       rdf:about=""><dc:format>image/svg+xml</dc:format><dc:type
         rdf:resource="http://purl.org/dc/dcmitype/StillImage" /><dc:title></dc:title></cc:Work></rdf:RDF></metadata><sodipodi:namedview
   pagecolor="#ffffff"
   bordercolor="#666666"
   borderopacity="1"
   objecttolerance="10"
   gridtolerance="10"
   guidetolerance="10"
   inkscape:pageopacity="0"
   inkscape:pageshadow="2"
   inkscape:window-width="1920"
   inkscape:window-height="1020"
   id="namedview4826"
   showgrid="false"
   inkscape:zoom="0.81835938"
   inkscape:cx="27.425588"
   inkscape:cy="300.59788"
   inkscape:window-x="0"
   inkscape:window-y="28"
   inkscape:window-maximized="1"
   inkscape:current-layer="svg4824"
   inkscape:pagecheckerboard="true" />
<desc
   id="desc4693">Created with Fabric.js 2.4.6</desc>
<defs
   id="defs4695">
</defs>






<g
   id="g1151"
   transform="translate(-239.55724,-7.1505453)"><rect
     y="24.388489"
     x="301.16327"
     height="373.51266"
     width="372.92514"
     id="rect875"
     style="opacity:0.98000004;fill:#ffffff;fill-opacity:1;stroke:#ffffff;stroke-width:17.30981064;stroke-miterlimit:4;stroke-dasharray:none;stroke-opacity:0" /><g
     id="g4765"
     transform="matrix(1.57,0,0,1.57,443.70805,300.28008)">
	<path
   sodipodi:nodetypes="cc"
   inkscape:connector-curvature="0"
   id="path1101"
   d="m 109.16294,-170.18787 c -15.140576,-23.31868 -54.95037,-14.05074 -82.267635,-5.43591"
   style="fill:#ffffff;fill-opacity:1;stroke:#ffffff;stroke-width:0.63694268px;stroke-linecap:butt;stroke-linejoin:miter;stroke-opacity:1" /><path
   sodipodi:nodetypes="cc"
   inkscape:connector-curvature="0"
   id="path1099"
   d="m -90.329867,-89.218131 c -51.560483,53.654243 -48.658843,96.6339735 1.436582,135.708533"
   style="fill:#ffffff;fill-opacity:1;stroke:#ffffff;stroke-width:0.63694268px;stroke-linecap:butt;stroke-linejoin:miter;stroke-opacity:1" /><path
   sodipodi:nodetypes="cc"
   inkscape:connector-curvature="0"
   id="path1091"
   d="m -128.28202,-5.7534401 c 4.28697,21.0145131 15.19691,38.6277541 36.622311,50.8407201"
   style="fill:#ffffff;stroke:#ffffff;stroke-width:0.71960479px;stroke-linecap:butt;stroke-linejoin:miter;stroke-opacity:1" /><g
   id="logo-logo"
   transform="matrix(0.14,0,0,-0.14,-43.05669,25.33129)">
<path
   inkscape:connector-curvature="0"
   id="path4702"
   d="m 615.742,628.172 c -15.953,6.488 -31.07,13.801 -45.347,21.941 -35.446,20.883 -63.239,46.039 -83.399,75.465 v 68.899 c 102.793,80.289 249.219,130.507 411.762,130.507 97.984,0 190.112,-18.25 270.362,-50.328 C 1099.51,863.582 1030.78,847.809 964.336,826.809 846.242,789.48 721.137,730.641 631.441,643.434 l -15.699,-15.262"
   transform="translate(-828.06,-776.58)"
   style="opacity:1;fill:#abcc20;fill-rule:evenodd;stroke:none;stroke-width:1;stroke-linecap:butt;stroke-linejoin:miter;stroke-miterlimit:10;stroke-dasharray:none;stroke-dashoffset:0;paint-order:stroke" />
</g>
	<g
   id="g4707"
   transform="matrix(0.14,0,0,-0.14,-43.05669,25.33129)">
<path
   inkscape:connector-curvature="0"
   id="path4705"
   d="m 615.742,628.172 c -15.953,6.488 -31.07,13.801 -45.347,21.941 -35.446,20.883 -63.239,46.039 -83.399,75.465 v 68.899 c 102.793,80.289 249.219,130.507 411.762,130.507 97.984,0 190.112,-18.25 270.362,-50.328 C 1099.51,863.582 1030.78,847.809 964.336,826.809 846.242,789.48 721.137,730.641 631.441,643.434 Z"
   transform="translate(-828.06,-776.58)"
   style="opacity:1;fill:none;fill-rule:nonzero;stroke:#abcc20;stroke-width:0.0028;stroke-linecap:butt;stroke-linejoin:miter;stroke-miterlimit:2.61310005;stroke-dasharray:none;stroke-dashoffset:0;paint-order:stroke" />
</g>
	<g
   id="g4711"
   transform="matrix(0.14,0,0,-0.14,83.60331,-0.77871355)">
<path
   inkscape:connector-curvature="0"
   id="path4709"
   d="m 2157.96,1381.95 v -155.68 c -10.76,36.73 -29.45,70.89 -54.94,102.27 l -62.02,78.15 c 6.63,0.54 12.75,0.81 18.34,0.81 33.26,0 66.13,-8.52 98.62,-25.55 z m 0,-305.99 V 508.102 H 1515.7 c 172.53,68.996 329.07,176.867 470.78,314.347 68.99,66.922 144.23,155.946 171.48,253.511 z M 1256.01,510.945 c 230.74,50.973 445.79,172.547 645.14,364.743 110.17,107.546 167.83,206.442 173.03,295.752 3.64,84.31 -32.83,158.14 -109.42,222.39 6.74,1.53 13.23,2.93 19.48,4.2 43.43,-45.79 76.75,-96.13 91.21,-154.12 24.36,-97.64 -18.64,-189.68 -76.54,-266.355 -26.99,-35.746 -57.7,-68.86 -89.83,-100.028 C 1719.73,693.832 1503.22,563.5 1256.01,510.945"
   transform="translate(-1706.99,-957.8)"
   style="opacity:1;fill:#66c430;fill-rule:evenodd;stroke:none;stroke-width:1;stroke-linecap:butt;stroke-linejoin:miter;stroke-miterlimit:10;stroke-dasharray:none;stroke-dashoffset:0;paint-order:stroke" />
</g>
	<g
   id="g4715"
   transform="matrix(0.14,0,0,-0.14,83.60331,-0.77871355)">
<path
   inkscape:connector-curvature="0"
   id="path4713"
   d="m 2157.96,1381.95 v -155.68 c -10.76,36.73 -29.45,70.89 -54.94,102.27 l -62.02,78.15 c 6.63,0.54 12.75,0.81 18.34,0.81 33.26,0 66.13,-8.52 98.62,-25.55 z m 0,-305.99 V 508.102 H 1515.7 c 172.53,68.996 329.07,176.867 470.78,314.347 68.99,66.922 144.23,155.946 171.48,253.511 z M 1256.01,510.945 c 230.74,50.973 445.79,172.547 645.14,364.743 110.17,107.546 167.83,206.442 173.03,295.752 3.64,84.31 -32.83,158.14 -109.42,222.39 6.74,1.53 13.23,2.93 19.48,4.2 43.43,-45.79 76.75,-96.13 91.21,-154.12 24.36,-97.64 -18.64,-189.68 -76.54,-266.355 -26.99,-35.746 -57.7,-68.86 -89.83,-100.028 C 1719.73,693.832 1503.22,563.5 1256.01,510.945 Z"
   transform="translate(-1706.99,-957.8)"
   style="opacity:1;fill:none;fill-rule:nonzero;stroke:#66c430;stroke-width:0.0028;stroke-linecap:butt;stroke-linejoin:miter;stroke-miterlimit:2.61310005;stroke-dasharray:none;stroke-dashoffset:0;paint-order:stroke" />
</g>
	<g
   id="g4719"
   transform="matrix(0.14,0,0,-0.14,28.19331,-80.86871)">
<path
   sodipodi:nodetypes="cccscccccccscccccccccccccccccccccccccccccccccccccccccccccccccccccccccccccccccccccccccccccccccccccccccccccccccccccccccccccccccccccccccccccccccccccccccccccccccccccccccccccccccccccccccccccccccccccccccccccccccccccccccccccccccccccccccccccccccccccccccccccccccccccccccccccccccccccccccccccccccccccccccccccccccccccscccccccscscccsccscscscccccccccccccccsccccccccccccccccccccccccccccccccccccccccccccccccccccccccccccccccccccccccccccccccccccccccccccccccccccccccccccccccccccccccccccccccccccccccccccccccccccccccccccccccccccccccccccccccccccccccccccccccccccccccccccc"
   transform="translate(-1322.48,-1513.56)"
   inkscape:connector-curvature="0"
   id="path4717"
   d="m 1889.041,2175.1389 268.919,3.9311 v -721.19 c -92.91,42.97 -248.01,64.46 -465.33,64.46 -195.56,0 -366.6,-18.23 -513.12,-54.68 -163.99,-40.11 -248.182,-92.97 -252.576,-158.59 0.664,-16.41 8.066,-36 22.203,-58.79 14.133,-22.78 28.211,-33.26 42.234,-31.44 l 220.219,43.75 c -0.07,1.82 -1.06,4.55 -2.97,8.2 h -113.64 c 207.73,91.14 390.88,136.71 549.45,136.71 181.47,0 269.05,-52.86 262.76,-158.59 -7.63,-130.7 -92.23,-252.914 -253.76,-366.672 l -53.07,5.082 c -36.5,3.493 -73.11,5.805 -109.76,6.965 l -0.33,31.641 c 4.29,11.844 4.46,22.672 2.11,33.57 l 13.28,15.594 23.64,-0.41 c 0.65,-0.043 1.21,0.449 1.26,1.097 0.04,0.649 -0.45,1.215 -1.1,1.258 l -25.91,1.883 v 0 c -0.36,0.027 -0.73,-0.117 -0.98,-0.418 l -12.32,-10.953 -2.61,19.941 19.6,21.292 0.39,0.15 0.06,0.03 0.44,0.2 h 0.01 l 0.41,0.2 0.08,0.04 0.33,0.18 0.04,0.03 0.31,0.19 0.07,0.04 0.29,0.2 0.14,0.09 0.26,0.19 0.09,0.07 0.27,0.21 0.08,0.07 c 0.28,0.24 0.55,0.49 0.81,0.75 l 0.1,0.11 0.06,0.06 0.07,0.08 0.22,0.25 0.13,0.15 0.17,0.22 0.19,0.24 0.04,0.05 0.22,0.3 0.02,0.03 0.2,0.3 0.05,0.08 0.23,0.35 0.01,0.03 0.24,0.39 0.01,0.04 0.2,0.37 0.05,0.09 0.15,0.32 0.08,0.16 0.12,0.26 0.1,0.24 0.03,0.06 0.14,0.33 0.04,0.1 0.06,0.15 0.14,0.36 0.03,0.09 0.15,0.44 0.01,0.01 0.14,0.46 0.03,0.06 0.12,0.42 0.04,0.12 0.09,0.36 0.05,0.2 0.08,0.28 0.06,0.27 0.06,0.22 0.07,0.36 0.03,0.14 0.1,0.43 0.01,0.07 0.09,0.52 h 0.01 l 0.08,0.51 0.01,0.08 0.07,0.44 0.03,0.16 0.05,0.37 0.04,0.24 0.03,0.28 0.04,0.32 0.03,0.22 0.04,0.4 0.01,0.13 0.06,0.49 v 0.05 l 0.05,0.55 v 0.02 l 0.05,0.52 0.01,0.11 0.03,0.44 0.04,0.55 0.01,0.27 0.02,0.29 0.02,0.34 0.01,0.21 0.02,0.43 0.01,0.12 0.02,0.52 v 0.04 l 0.02,0.55 v 0.05 l 0.02,0.51 0.01,0.12 0.02,0.44 v 0.2 l 0.01,0.36 0.01,0.28 v 0.27 l 0.01,0.38 0.01,0.18 0.01,0.45 v 0.1 l 0.01,0.54 v 0.02 l 0.01,0.54 v 0.07 l 0.01,0.48 0.01,0.14 v 0.41 l 0.01,0.23 v 0.31 l 0.01,0.3 v 0.24 l 0.02,0.38 v 0.16 l 0.01,0.45 v 0.08 l 0.02,0.53 c 23.91,-15.97 21.52,-2.21 31.77,17.28 5.61,-7.51 8.02,-10.85 16.33,-15 2.26,-3.8 4.54,-7.59 6.81,-11.37 4.38,-1.97 8.77,-3.94 13.16,-5.91 -9.67,0.85 -11.41,-2.98 -7.72,-10 -4.08,2.27 -8.4,12.18 -12.49,14.45 -4.23,1.97 -8.23,-3.7 -12.47,-1.72 -10.98,2.85 -20.5,2.26 -26.77,-5.91 -5.77,-8.49 -4.87,-15 2.72,-19.55 10.71,-10.294 19.35,-7.45 27.68,-2.732 -5.93,-6.054 -10.08,-12.007 -1.81,-17.277 6.35,-6.961 10.74,-6.055 13.15,2.727 1.07,-2.575 2.13,-5.153 3.19,-7.727 5.47,-6.933 11.68,-8.699 19.51,0.906 1.1,7.118 -2.65,13.688 -8.62,20.008 7.18,-5.281 10.57,-2.437 12.25,4.095 0.9,-5.157 1.81,-10.31 2.72,-15.462 3.4,-3.461 7.29,-3.469 12.25,4.094 7.57,-24.715 50.63,-14.641 20.88,0.453 -12.3,4.875 -18.62,10.387 -11.8,17.275 5.3,1.67 10.59,3.33 15.88,5.01 10.23,-4.1 8.26,1.23 11.8,10.9 18.81,-12.56 18.55,-3 12.71,14.55 7.37,12.6 8.31,12 1.82,25.01 6.14,11.1 7.24,19.68 -2.72,22.73 -4.85,0.76 -9.69,1.52 -14.53,2.27 10.91,6.15 19.29,11.9 9.98,15.01 -3.62,0.3 -7.26,0.61 -10.89,0.91 3.12,9.88 -0.81,14.73 -11.79,14.55 -3.32,4.98 0,7.27 0,10.91 9.52,8.04 13.16,21.99 4.98,31.06 -14.46,16.05 -20.44,-0.26 -43.56,-0.6 -3.02,2.27 -6.05,4.55 -9.07,6.82 6.2,0.91 6.95,4.85 2.27,11.82 30.52,-15.3 25.13,14.04 1.81,15.46 2.87,9.85 2.12,17.28 -2.27,22.28 -8.17,9.09 -13.91,6.67 -17.25,-7.27 -7.11,17.12 -15.42,19.09 -24.95,5.91 -6.21,-10.76 -14.22,-15.46 -24.06,-14.1 -6.72,2.93 -18.81,5 -19.06,22.73 35.23,-48.64 26.02,37.78 4.54,25.01 -3.47,-3.33 -6.95,-6.67 -10.43,-10 4.38,9.09 4.99,17.43 -2.73,24.1 -10,3.07 -11.5,-6.65 -11.8,-18.19 -23.74,7.99 -41.6,1.7 -50.83,-25.46 -26.16,20.3 -42.05,15.16 -47.64,-15.46 -9.46,-8.18 -13.99,-17.13 -7.72,-27.73 -13.95,0.01 -24.87,-1.34 -14.52,-12.28 4.99,-4.24 9.98,-8.49 14.97,-12.73 6.6,-12.23 -8.66,-10.6 -13.61,3.18 -12.44,8.98 -11.04,10.4 -13.16,-5 -2.57,6.7 -6.2,2.75 -9.98,-2.73 3.19,5.76 5.16,11.67 -1.36,18.64 -16.04,12.77 -14.59,-13.94 -12.27,-17.29 -20.8,-0.34 -37.6,-3.09 -28.58,-21.35 -7.18,-17.21 -3.56,-25.24 5,-29.1 7.03,-15.46 0.53,-29.55 -8.18,-37.74 -2.86,3.18 -1.36,10.46 -5.9,13.19 -6.66,-1.06 -12.86,-3.02 -15.88,-11.37 -7.03,-14.71 -5.37,-22.59 15.43,-15.46 -20.17,-34.54 -11.31,-72.762 35.4,-66.375 23.74,1.269 28.13,18.238 15.43,35.005 6.58,-2.57 9,3.18 9.53,12.73 1.59,-10.22 5.82,-17.05 15.88,-16.36 5.89,1.36 7.57,8.18 5,20.46 4.08,-7.28 8.77,-7.89 14.06,-1.82 l 0.88,-1.03 0.1,-0.11 0.78,-0.88 0.19,-0.23 0.69,-0.75 0.09,-0.11 0.62,-0.66 0.3,-0.33 0.53,-0.56 0.45,-0.47 0.58,-0.59 0.21,-0.22 0.71,-0.71 0.07,-0.06 0.69,-0.69 0.2,-0.19 0.38,-0.35 0.52,-0.5 0.91,-0.83 v 0 l 0.9,-0.8 0.67,-0.58 0.29,-0.25 0.55,-0.45 0.45,-0.38 0.47,-0.37 0.47,-0.38 0.56,-0.43 0.5,-0.37 0.33,-0.25 0.74,-0.54 0.29,-0.2 0.53,-0.37 0.53,-0.36 0.05,-0.04 0.84,-0.55 0.1,-0.06 0.93,-0.59 c 0.53,-0.32 1.06,-0.63 1.59,-0.92 l 0.4,-0.23 0.4,-0.22 0.67,-0.35 0.3,-0.15 0.69,-0.34 0.41,-0.2 0.53,-0.24 0.59,-0.26 0.34,-0.15 0.64,-0.27 0.32,-0.12 c 1.44,-0.57 2.89,-1.05 4.35,-1.42 l 0.4,-0.11 0.68,-0.16 0.3,-0.06 0.71,-0.15 0.33,-0.07 0.78,-0.13 0.17,-0.03 0.81,-0.11 0.27,-0.04 0.84,-0.1 h 0.02 c 1.66,-0.16 3.34,-0.19 5.03,-0.1 h 0.04 l 0.99,0.07 0.05,0.01 0.93,0.09 0.16,0.02 0.85,0.11 0.23,0.03 0.88,0.15 0.14,0.02 c 0.67,0.12 1.33,0.26 2,0.42 l 0.06,0.02 c 1.74,0.41 3.49,0.97 5.27,1.66 l 0.03,0.01 1.03,0.42 0.07,0.03 0.92,0.4 0.26,0.12 c 2.46,1.11 4.95,2.5 7.48,4.18 l 0.19,0.12 0.97,0.66 0.15,0.1 0.99,0.71 0.1,0.07 14.08,-22.074 c 0.1,-0.113 0.22,-0.207 0.35,-0.269 l -0.12,-0.5 -13.8,-4.899 -19.91,7.402 c -0.24,0.09 -0.48,0.098 -0.7,0.043 l -11.76,-2.824 c -0.63,-0.148 -1.02,-0.785 -0.87,-1.414 0.15,-0.629 0.78,-1.019 1.41,-0.867 l 11.43,2.738 19.28,-10.117 c 0.23,-0.109 0.51,-0.133 0.77,-0.07 l 12.4,1.629 c -1.83,-11.211 -1.16,-21.321 2.69,-34.871 l -1.98,-54.434 c -6.93,0.082 -13.86,0.121 -20.79,0.121 -61.52,0 -123.76,-3.16 -185.73,-9.84 -107.32,56.473 -232.73,82.86 -350.512,82.86 -143.211,0 -292.86,-37.868 -411.762,-120.125 V 1090.6 c 63.707,198.21 201.984,390.44 414.875,576.66 280.669,247.9 558.429,371.86 833.279,371.86 52.86,0 105.94,-5.47 159.23,-16.41 92.43,-20.05 137.77,-51.95 136.01,-95.69 -2.48,-25.53 -22.54,-63.35 -60.15,-113.48 -37.61,-50.13 -56.35,-77.01 -56.2,-80.66 0.29,-7.29 1.34,-11.4 3.14,-12.31 1.8,-0.91 3.62,-2.27 5.45,-4.1 1.83,-1.82 4.51,-2.73 8.04,-2.73 15.85,0 44.96,20.96 87.31,62.89 42.35,41.92 62.27,72 59.77,90.23 -0.14,3.64 0.92,10.02 3.2,19.14 2.27,9.11 3.37,14.58 3.29,16.4 4.62,60.16 -27,123.05 -94.84,188.67 -40.61,37.97 -59.649,63.3789 -100.359,84.0689 z M 1321.87,1146.51 c 0.31,-0.43 0.63,-0.47 0.92,0.02 z m 176.02,-138.16 c -0.6,0.1 -1.2,0.2 -1.79,0.34 l -0.23,0.05 -0.06,0.01 -0.3,0.08 h -0.02 c -0.28,0.07 -0.57,0.15 -0.85,0.24 l -0.28,0.09 v 0 l -0.57,0.2 v 0 l -0.29,0.11 -0.24,0.09 -0.04,0.02 -0.28,0.12 -0.04,0.02 -0.24,0.11 c -1.29,0.6 -2.53,1.42 -3.7,2.55 l -0.19,0.18 -0.06,0.07 -0.25,0.25 -0.01,0.01 -0.24,0.26 -0.07,0.09 -0.16,0.19 c -0.48,0.56 -0.95,1.18 -1.4,1.88 l -0.22,0.36 -0.42,0.7 -0.05,0.08 -0.19,0.35 -0.21,0.4 h -0.01 l -0.2,0.41 -0.19,0.4 -0.02,0.03 -0.13,0.27 -0.07,0.17 -0.19,0.41 -0.02,0.04 -0.19,0.48 -0.2,0.47 -0.11,-5.86 2.31,-17.657 14.76,11.607 -0.28,0.03 h -0.02 l -0.31,0.03 -0.07,0.01 -0.24,0.02 -0.15,0.02 -0.15,0.01 -0.92,0.11 -0.12,0.01 -0.18,0.02 -0.21,0.03 -0.09,0.01 -0.3,0.04 v 0 z m -38.71,8.69 -0.05,0.16 -0.04,0.08 -0.08,0.22 -0.01,0.01 -0.1,0.24 -0.02,0.05 -0.07,0.17 -0.06,0.12 -0.04,0.11 -0.08,0.18 -0.03,0.03 -0.1,0.22 -0.01,0.02 -0.1,0.19 -0.04,0.09 -0.06,0.12 -0.08,0.14 -0.04,0.06 -0.11,0.2 h -0.01 l -0.11,0.19 -0.03,0.06 -0.08,0.13 -0.07,0.12 -0.06,0.07 -0.1,0.16 -0.01,0.02 -0.13,0.18 -0.02,0.03 -0.1,0.14 -0.06,0.08 -0.07,0.08 -0.1,0.13 -0.03,0.04 -0.13,0.16 v 0 l -0.13,0.15 -0.04,0.05 -0.09,0.1 -0.08,0.09 -0.06,0.05 -0.12,0.13 -0.01,0.01 -0.17,0.16 -0.11,0.1 -0.06,0.06 -0.07,0.06 -0.11,0.1 -0.02,0.03 -0.15,0.1 -0.01,0.02 -0.13,0.09 -0.05,0.04 -0.09,0.06 -0.1,0.07 -0.05,0.03 -0.14,0.09 v 0 l -0.14,0.08 -0.04,0.03 -0.18,0.1 -0.07,0.03 -0.12,0.06 -0.02,0.01 -0.15,0.06 -0.02,0.01 -0.13,0.04 -0.06,0.03 -0.08,0.03 -0.1,0.03 -0.05,0.01 -0.14,0.04 v 0 l -0.15,0.03 -0.04,0.01 -0.1,0.02 -0.09,0.01 -0.05,0.01 -0.14,0.02 h -0.01 -0.15 -0.02 -0.12 -0.08 -0.07 l -0.11,-0.01 h -0.03 l -0.14,-0.02 h -0.01 l -0.14,-0.03 -0.05,-0.01 -0.09,-0.02 -0.09,-0.02 -0.05,-0.02 -0.14,-0.04 v 0 l -0.14,-0.05 -0.04,-0.02 -0.1,-0.04 -0.08,-0.03 -0.06,-0.03 -0.11,-0.06 -0.03,-0.02 -0.13,-0.08 h -0.02 l -0.12,-0.09 -0.05,-0.04 -0.08,-0.05 -0.1,-0.07 -0.03,-0.03 -0.13,-0.11 -1.14,-1.04 -0.08,-0.08 -0.09,-0.07 v -0.01 l -0.08,-0.07 -0.09,-0.09 -0.79,-0.69 -0.09,-0.07 -0.08,-0.08 -0.08,-0.07 -0.09,-0.08 -0.09,-0.07 -0.08,-0.08 -0.09,-0.07 -0.09,-0.08 -0.08,-0.07 -0.09,-0.07 -0.09,-0.08 -0.08,-0.07 -0.09,-0.08 -0.08,-0.07 -0.09,-0.07 -0.08,-0.08 -0.09,-0.06 -0.43,-0.37 -0.09,-0.07 -0.09,-0.07 -0.08,-0.07 -0.08,-0.07 -0.09,-0.06 -0.09,-0.08 -0.08,-0.07 -0.09,-0.07 -0.09,-0.07 -0.08,-0.06 -0.34,-0.28 -0.09,-0.06 -0.09,-0.08 13.43,-12.37 0.52,9.24 v 2.55"
   style="opacity:1;fill:#005d28;fill-rule:evenodd;stroke:none;stroke-width:1;stroke-linecap:butt;stroke-linejoin:miter;stroke-miterlimit:10;stroke-dasharray:none;stroke-dashoffset:0;paint-order:stroke" />
</g>
	<g
   id="g4723"
   transform="matrix(0.14,0,0,-0.14,28.19331,-80.86871)">
<path
   inkscape:connector-curvature="0"
   id="path4721"
   d="m 1867.42,2179.07 h 290.54 v -721.19 c -92.91,42.97 -248.01,64.46 -465.33,64.46 -195.56,0 -366.6,-18.23 -513.12,-54.68 -163.99,-40.11 -248.182,-92.97 -252.576,-158.59 0.664,-16.41 8.066,-36 22.203,-58.79 14.133,-22.78 28.211,-33.26 42.234,-31.44 l 220.219,43.75 c -0.07,1.82 -1.06,4.55 -2.97,8.2 -82.81,0 -120.69,0 -113.64,0 207.73,91.14 390.88,136.71 549.45,136.71 181.47,0 269.05,-52.86 262.76,-158.59 -7.63,-130.7 -92.23,-252.914 -253.76,-366.672 l -53.07,5.082 c -36.5,3.493 -73.11,5.805 -109.76,6.965 l -0.33,31.641 c 4.29,11.844 4.46,22.672 2.11,33.57 l 13.28,15.594 23.64,-0.41 c 0.65,-0.043 1.21,0.449 1.26,1.097 0.04,0.649 -0.45,1.215 -1.1,1.258 l -25.91,1.883 v 0 c -0.36,0.027 -0.73,-0.117 -0.98,-0.418 l -12.32,-10.953 -2.61,19.941 19.6,21.292 0.39,0.15 0.06,0.03 0.44,0.2 h 0.01 l 0.41,0.2 0.08,0.04 0.33,0.18 0.04,0.03 0.31,0.19 0.07,0.04 0.29,0.2 0.14,0.09 0.26,0.19 0.09,0.07 0.27,0.21 0.08,0.07 c 0.28,0.24 0.55,0.49 0.81,0.75 l 0.1,0.11 0.06,0.06 0.07,0.08 0.22,0.25 0.13,0.15 0.17,0.22 0.19,0.24 0.04,0.05 0.22,0.3 0.02,0.03 0.2,0.3 0.05,0.08 0.23,0.35 0.01,0.03 0.24,0.39 0.01,0.04 0.2,0.37 0.05,0.09 0.15,0.32 0.08,0.16 0.12,0.26 0.1,0.24 0.03,0.06 0.14,0.33 0.04,0.1 0.06,0.15 0.14,0.36 0.03,0.09 0.15,0.44 0.01,0.01 0.14,0.46 0.03,0.06 0.12,0.42 0.04,0.12 0.09,0.36 0.05,0.2 0.08,0.28 0.06,0.27 0.06,0.22 0.07,0.36 0.03,0.14 0.1,0.43 0.01,0.07 0.09,0.52 h 0.01 l 0.08,0.51 0.01,0.08 0.07,0.44 0.03,0.16 0.05,0.37 0.04,0.24 0.03,0.28 0.04,0.32 0.03,0.22 0.04,0.4 0.01,0.13 0.06,0.49 v 0.05 l 0.05,0.55 v 0.02 l 0.05,0.52 0.01,0.11 0.03,0.44 0.04,0.55 0.01,0.27 0.02,0.29 0.02,0.34 0.01,0.21 0.02,0.43 0.01,0.12 0.02,0.52 v 0.04 l 0.02,0.55 v 0.05 l 0.02,0.51 0.01,0.12 0.02,0.44 v 0.2 l 0.01,0.36 0.01,0.28 v 0.27 l 0.01,0.38 0.01,0.18 0.01,0.45 v 0.1 l 0.01,0.54 v 0.02 l 0.01,0.54 v 0.07 l 0.01,0.48 0.01,0.14 v 0.41 l 0.01,0.23 v 0.31 l 0.01,0.3 v 0.24 l 0.02,0.38 v 0.16 l 0.01,0.45 v 0.08 l 0.02,0.53 c 23.91,-15.97 21.52,-2.21 31.77,17.28 5.61,-7.51 8.02,-10.85 16.33,-15 2.26,-3.8 4.54,-7.59 6.81,-11.37 4.38,-1.97 8.77,-3.94 13.16,-5.91 -9.67,0.85 -11.41,-2.98 -7.72,-10 -4.08,2.27 -8.4,12.18 -12.49,14.45 -4.23,1.97 -8.23,-3.7 -12.47,-1.72 -10.98,2.85 -20.5,2.26 -26.77,-5.91 -5.77,-8.49 -4.87,-15 2.72,-19.55 10.71,-10.294 19.35,-7.45 27.68,-2.732 -5.93,-6.054 -10.08,-12.007 -1.81,-17.277 6.35,-6.961 10.74,-6.055 13.15,2.727 1.07,-2.575 2.13,-5.153 3.19,-7.727 5.47,-6.933 11.68,-8.699 19.51,0.906 1.1,7.118 -2.65,13.688 -8.62,20.008 7.18,-5.281 10.57,-2.437 12.25,4.095 0.9,-5.157 1.81,-10.31 2.72,-15.462 3.4,-3.461 7.29,-3.469 12.25,4.094 7.57,-24.715 50.63,-14.641 20.88,0.453 -12.3,4.875 -18.62,10.387 -11.8,17.275 5.3,1.67 10.59,3.33 15.88,5.01 10.23,-4.1 8.26,1.23 11.8,10.9 18.81,-12.56 18.55,-3 12.71,14.55 7.37,12.6 8.31,12 1.82,25.01 6.14,11.1 7.24,19.68 -2.72,22.73 -4.85,0.76 -9.69,1.52 -14.53,2.27 10.91,6.15 19.29,11.9 9.98,15.01 -3.62,0.3 -7.26,0.61 -10.89,0.91 3.12,9.88 -0.81,14.73 -11.79,14.55 -3.32,4.98 0,7.27 0,10.91 9.52,8.04 13.16,21.99 4.98,31.06 -14.46,16.05 -20.44,-0.26 -43.56,-0.6 -3.02,2.27 -6.05,4.55 -9.07,6.82 6.2,0.91 6.95,4.85 2.27,11.82 30.52,-15.3 25.13,14.04 1.81,15.46 2.87,9.85 2.12,17.28 -2.27,22.28 -8.17,9.09 -13.91,6.67 -17.25,-7.27 -7.11,17.12 -15.42,19.09 -24.95,5.91 -6.21,-10.76 -14.22,-15.46 -24.06,-14.1 -6.72,2.93 -18.81,5 -19.06,22.73 35.23,-48.64 26.02,37.78 4.54,25.01 -3.47,-3.33 -6.95,-6.67 -10.43,-10 4.38,9.09 4.99,17.43 -2.73,24.1 -10,3.07 -11.5,-6.65 -11.8,-18.19 -23.74,7.99 -41.6,1.7 -50.83,-25.46 -26.16,20.3 -42.05,15.16 -47.64,-15.46 -9.46,-8.18 -13.99,-17.13 -7.72,-27.73 -13.95,0.01 -24.87,-1.34 -14.52,-12.28 4.99,-4.24 9.98,-8.49 14.97,-12.73 6.6,-12.23 -8.66,-10.6 -13.61,3.18 -12.44,8.98 -11.04,10.4 -13.16,-5 -2.57,6.7 -6.2,2.75 -9.98,-2.73 3.19,5.76 5.16,11.67 -1.36,18.64 -16.04,12.77 -14.59,-13.94 -12.27,-17.29 -20.8,-0.34 -37.6,-3.09 -28.58,-21.35 -7.18,-17.21 -3.56,-25.24 5,-29.1 7.03,-15.46 0.53,-29.55 -8.18,-37.74 -2.86,3.18 -1.36,10.46 -5.9,13.19 -6.66,-1.06 -12.86,-3.02 -15.88,-11.37 -7.03,-14.71 -5.37,-22.59 15.43,-15.46 -20.17,-34.54 -11.31,-72.762 35.4,-66.375 23.74,1.269 28.13,18.238 15.43,35.005 6.58,-2.57 9,3.18 9.53,12.73 1.59,-10.22 5.82,-17.05 15.88,-16.36 5.89,1.36 7.57,8.18 5,20.46 4.08,-7.28 8.77,-7.89 14.06,-1.82 l 0.88,-1.03 0.1,-0.11 0.78,-0.88 0.19,-0.23 0.69,-0.75 0.09,-0.11 0.62,-0.66 0.3,-0.33 0.53,-0.56 0.45,-0.47 0.58,-0.59 0.21,-0.22 0.71,-0.71 0.07,-0.06 0.69,-0.69 0.2,-0.19 0.38,-0.35 0.52,-0.5 0.91,-0.83 v 0 l 0.9,-0.8 0.67,-0.58 0.29,-0.25 0.55,-0.45 0.45,-0.38 0.47,-0.37 0.47,-0.38 0.56,-0.43 0.5,-0.37 0.33,-0.25 0.74,-0.54 0.29,-0.2 0.53,-0.37 0.53,-0.36 0.05,-0.04 0.84,-0.55 0.1,-0.06 0.93,-0.59 c 0.53,-0.32 1.06,-0.63 1.59,-0.92 l 0.4,-0.23 0.4,-0.22 0.67,-0.35 0.3,-0.15 0.69,-0.34 0.41,-0.2 0.53,-0.24 0.59,-0.26 0.34,-0.15 0.64,-0.27 0.32,-0.12 c 1.44,-0.57 2.89,-1.05 4.35,-1.42 l 0.4,-0.11 0.68,-0.16 0.3,-0.06 0.71,-0.15 0.33,-0.07 0.78,-0.13 0.17,-0.03 0.81,-0.11 0.27,-0.04 0.84,-0.1 h 0.02 c 1.66,-0.16 3.34,-0.19 5.03,-0.1 h 0.04 l 0.99,0.07 0.05,0.01 0.93,0.09 0.16,0.02 0.85,0.11 0.23,0.03 0.88,0.15 0.14,0.02 c 0.67,0.12 1.33,0.26 2,0.42 l 0.06,0.02 c 1.74,0.41 3.49,0.97 5.27,1.66 l 0.03,0.01 1.03,0.42 0.07,0.03 0.92,0.4 0.26,0.12 c 2.46,1.11 4.95,2.5 7.48,4.18 l 0.19,0.12 0.97,0.66 0.15,0.1 0.99,0.71 0.1,0.07 14.08,-22.074 c 0.1,-0.113 0.22,-0.207 0.35,-0.269 l -0.12,-0.5 -13.8,-4.899 -19.91,7.402 c -0.24,0.09 -0.48,0.098 -0.7,0.043 l -11.76,-2.824 c -0.63,-0.148 -1.02,-0.785 -0.87,-1.414 0.15,-0.629 0.78,-1.019 1.41,-0.867 l 11.43,2.738 19.28,-10.117 c 0.23,-0.109 0.51,-0.133 0.77,-0.07 l 12.4,1.629 c -1.83,-11.211 -1.16,-21.321 2.69,-34.871 l -1.98,-54.434 c -6.93,0.082 -13.86,0.121 -20.79,0.121 -61.52,0 -123.76,-3.16 -185.73,-9.84 -107.32,56.473 -232.73,82.86 -350.512,82.86 -143.211,0 -292.86,-37.868 -411.762,-120.125 V 1090.6 c 63.707,198.21 201.984,390.44 414.875,576.66 280.669,247.9 558.429,371.86 833.279,371.86 52.86,0 105.94,-5.47 159.23,-16.41 92.43,-20.05 137.77,-51.95 136.01,-95.69 -2.48,-25.53 -22.54,-63.35 -60.15,-113.48 -37.61,-50.13 -56.35,-77.01 -56.2,-80.66 0.29,-7.29 1.34,-11.4 3.14,-12.31 1.8,-0.91 3.62,-2.27 5.45,-4.1 1.83,-1.82 4.51,-2.73 8.04,-2.73 15.85,0 44.96,20.96 87.31,62.89 42.35,41.92 62.27,72 59.77,90.23 -0.14,3.64 0.92,10.02 3.2,19.14 2.27,9.11 3.37,14.58 3.29,16.4 4.62,60.16 -27,123.05 -94.84,188.67 -40.61,37.97 -81.27,67.31 -121.98,88 z M 1321.87,1146.51 c 0.31,-0.43 0.63,-0.47 0.92,0.02 z m 176.02,-138.16 c -0.6,0.1 -1.2,0.2 -1.79,0.34 l -0.23,0.05 -0.06,0.01 -0.3,0.08 h -0.02 c -0.28,0.07 -0.57,0.15 -0.85,0.24 l -0.28,0.09 v 0 l -0.57,0.2 v 0 l -0.29,0.11 -0.24,0.09 -0.04,0.02 -0.28,0.12 -0.04,0.02 -0.24,0.11 c -1.29,0.6 -2.53,1.42 -3.7,2.55 l -0.19,0.18 -0.06,0.07 -0.25,0.25 -0.01,0.01 -0.24,0.26 -0.07,0.09 -0.16,0.19 c -0.48,0.56 -0.95,1.18 -1.4,1.88 l -0.22,0.36 -0.42,0.7 -0.05,0.08 -0.19,0.35 -0.21,0.4 h -0.01 l -0.2,0.41 -0.19,0.4 -0.02,0.03 -0.13,0.27 -0.07,0.17 -0.19,0.41 -0.02,0.04 -0.19,0.48 -0.2,0.47 -0.11,-5.86 2.31,-17.657 14.76,11.607 -0.28,0.03 h -0.02 l -0.31,0.03 -0.07,0.01 -0.24,0.02 -0.15,0.02 -0.15,0.01 -0.92,0.11 -0.12,0.01 -0.18,0.02 -0.21,0.03 -0.09,0.01 -0.3,0.04 v 0 z m -38.71,8.69 -0.05,0.16 -0.04,0.08 -0.08,0.22 -0.01,0.01 -0.1,0.24 -0.02,0.05 -0.07,0.17 -0.06,0.12 -0.04,0.11 -0.08,0.18 -0.03,0.03 -0.1,0.22 -0.01,0.02 -0.1,0.19 -0.04,0.09 -0.06,0.12 -0.08,0.14 -0.04,0.06 -0.11,0.2 h -0.01 l -0.11,0.19 -0.03,0.06 -0.08,0.13 -0.07,0.12 -0.06,0.07 -0.1,0.16 -0.01,0.02 -0.13,0.18 -0.02,0.03 -0.1,0.14 -0.06,0.08 -0.07,0.08 -0.1,0.13 -0.03,0.04 -0.13,0.16 v 0 l -0.13,0.15 -0.04,0.05 -0.09,0.1 -0.08,0.09 -0.06,0.05 -0.12,0.13 -0.01,0.01 -0.17,0.16 -0.11,0.1 -0.06,0.06 -0.07,0.06 -0.11,0.1 -0.02,0.03 -0.15,0.1 -0.01,0.02 -0.13,0.09 -0.05,0.04 -0.09,0.06 -0.1,0.07 -0.05,0.03 -0.14,0.09 v 0 l -0.14,0.08 -0.04,0.03 -0.18,0.1 -0.07,0.03 -0.12,0.06 -0.02,0.01 -0.15,0.06 -0.02,0.01 -0.13,0.04 -0.06,0.03 -0.08,0.03 -0.1,0.03 -0.05,0.01 -0.14,0.04 v 0 l -0.15,0.03 -0.04,0.01 -0.1,0.02 -0.09,0.01 -0.05,0.01 -0.14,0.02 h -0.01 -0.15 -0.02 -0.12 -0.08 -0.07 l -0.11,-0.01 h -0.03 l -0.14,-0.02 h -0.01 l -0.14,-0.03 -0.05,-0.01 -0.09,-0.02 -0.09,-0.02 -0.05,-0.02 -0.14,-0.04 v 0 l -0.14,-0.05 -0.04,-0.02 -0.1,-0.04 -0.08,-0.03 -0.06,-0.03 -0.11,-0.06 -0.03,-0.02 -0.13,-0.08 h -0.02 l -0.12,-0.09 -0.05,-0.04 -0.08,-0.05 -0.1,-0.07 -0.03,-0.03 -0.13,-0.11 -1.14,-1.04 -0.08,-0.08 -0.09,-0.07 v -0.01 l -0.08,-0.07 -0.09,-0.09 -0.79,-0.69 -0.09,-0.07 -0.08,-0.08 -0.08,-0.07 -0.09,-0.08 -0.09,-0.07 -0.08,-0.08 -0.09,-0.07 -0.09,-0.08 -0.08,-0.07 -0.09,-0.07 -0.09,-0.08 -0.08,-0.07 -0.09,-0.08 -0.08,-0.07 -0.09,-0.07 -0.08,-0.08 -0.09,-0.06 -0.43,-0.37 -0.09,-0.07 -0.09,-0.07 -0.08,-0.07 -0.08,-0.07 -0.09,-0.06 -0.09,-0.08 -0.08,-0.07 -0.09,-0.07 -0.09,-0.07 -0.08,-0.06 -0.34,-0.28 -0.09,-0.06 -0.09,-0.08 13.43,-12.37 0.52,9.24 z"
   transform="translate(-1322.48,-1513.56)"
   style="opacity:1;fill:none;fill-rule:nonzero;stroke:#005d28;stroke-width:0.0028;stroke-linecap:butt;stroke-linejoin:miter;stroke-miterlimit:2.61310005;stroke-dasharray:none;stroke-dashoffset:0;paint-order:stroke" />
</g>
	<g
   id="g4727"
   transform="matrix(0.14,0,0,-0.14,-72.49669,54.43124)">
<path
   inkscape:connector-curvature="0"
   id="path4725"
   d="M 760.547,508.102 H 486.996 V 641.188 C 559.77,577.637 650.953,533.277 760.547,508.102"
   transform="translate(-623.77,-574.64)"
   style="opacity:1;fill:#66c430;fill-rule:evenodd;stroke:none;stroke-width:1;stroke-linecap:butt;stroke-linejoin:miter;stroke-miterlimit:10;stroke-dasharray:none;stroke-dashoffset:0;paint-order:stroke" />
</g>
	<g
   id="g4731"
   transform="matrix(0.14,0,0,-0.14,-72.49669,54.43124)">
<path
   inkscape:connector-curvature="0"
   id="path4729"
   d="M 760.547,508.102 H 486.996 V 641.188 C 559.77,577.637 650.953,533.277 760.547,508.102 Z"
   transform="translate(-623.77,-574.64)"
   style="opacity:1;fill:none;fill-rule:nonzero;stroke:#66c430;stroke-width:0.0028;stroke-linecap:butt;stroke-linejoin:miter;stroke-miterlimit:2.61310005;stroke-dasharray:none;stroke-dashoffset:0;paint-order:stroke" />
</g>
	<g
   id="g4735"
   transform="matrix(0.14,0,0,-0.14,-42.55669,-140.08887)">
<path
   inkscape:connector-curvature="0"
   id="path4733"
   d="m 486.996,2179.07 h 689.084 c -55.4,-26.04 -108.76,-54.6 -159.06,-83.71 -198.235,-114.7 -376.864,-255.99 -530.024,-425.42 v 509.13"
   transform="translate(-831.54,-1924.51)"
   style="opacity:1;fill:#99d420;fill-rule:evenodd;stroke:none;stroke-width:1;stroke-linecap:butt;stroke-linejoin:miter;stroke-miterlimit:10;stroke-dasharray:none;stroke-dashoffset:0;paint-order:stroke" />
</g>
	<g
   id="g4739"
   transform="matrix(0.14,0,0,-0.14,-42.55669,-140.08887)">
<path
   inkscape:connector-curvature="0"
   id="path4737"
   d="m 486.996,2179.07 h 689.084 c -55.4,-26.04 -108.76,-54.6 -159.06,-83.71 -198.235,-114.7 -376.864,-255.99 -530.024,-425.42 z"
   transform="translate(-831.54,-1924.51)"
   style="opacity:1;fill:none;fill-rule:nonzero;stroke:#9ad524;stroke-width:0.0028;stroke-linecap:butt;stroke-linejoin:miter;stroke-miterlimit:2.61310005;stroke-dasharray:none;stroke-dashoffset:0;stroke-opacity:1;paint-order:stroke" />
</g>
	<g
   id="g4743"
   transform="matrix(0.14,0,0,-0.14,-18.38669,-91.89871)">
<path
   inkscape:connector-curvature="0"
   id="path4741"
   d="m 230.785,912.906 -0.879,0.93 c -22.398,30.992 -31.398,79.293 -27.004,144.914 9.071,167.7 97.715,349.98 265.934,546.86 156.402,184.1 343.937,339.04 562.604,464.82 225.49,131.25 423.68,196.87 594.58,196.87 49.34,0 95.36,-5.48 138.09,-16.41 10.89,-3.27 21.77,-7.16 32.65,-11.67 -39.07,8.15 -79.31,11 -119.12,11 -211.19,0 -429.49,-96.87 -609.01,-200.74 C 852.855,1924.63 660.289,1768.27 498.527,1578.4 365.605,1422.38 238.5,1224.99 225.77,1014.61 c -1.891,-31.215 -2.274,-67.965 5.015,-101.704"
   transform="translate(-999.29,-1590.1)"
   style="opacity:1;fill:#99d420;fill-rule:nonzero;stroke:none;stroke-width:1;stroke-linecap:butt;stroke-linejoin:miter;stroke-miterlimit:10;stroke-dasharray:none;stroke-dashoffset:0;paint-order:stroke" />
</g>
	
	<g
   id="g4751"
   transform="matrix(0.14,0,0,-0.14,0.29331235,33.35129)">
<path
   inkscape:connector-curvature="0"
   id="path4749"
   d="M 1596.24,844.316 C 1575.63,831.422 1554,818.641 1531.34,805.969 1341.89,698.418 1152.62,630.063 963.516,600.895 c -38.465,-7.29 -78.84,-10.938 -121.125,-10.938 -67.883,0 -128.161,7.504 -180.832,22.504 146.472,142.414 437.841,239.504 773.441,239.504 55.09,0 108.97,-2.645 161.24,-7.649"
   transform="translate(-1128.9,-720.96)"
   style="opacity:1;fill:#66c430;fill-rule:evenodd;stroke:none;stroke-width:1;stroke-linecap:butt;stroke-linejoin:miter;stroke-miterlimit:10;stroke-dasharray:none;stroke-dashoffset:0;paint-order:stroke" />
</g>
	<g
   id="g4755"
   transform="matrix(0.14,0,0,-0.14,0.29331235,33.35129)">
<path
   inkscape:connector-curvature="0"
   id="path4753"
   d="M 1596.24,844.316 C 1575.63,831.422 1554,818.641 1531.34,805.969 1341.89,698.418 1152.62,630.063 963.516,600.895 c -38.465,-7.29 -78.84,-10.938 -121.125,-10.938 -67.883,0 -128.161,7.504 -180.832,22.504 146.472,142.414 437.841,239.504 773.441,239.504 55.09,0 108.97,-2.645 161.24,-7.649 z"
   transform="translate(-1128.9,-720.96)"
   style="opacity:1;fill:none;fill-rule:nonzero;stroke:#66c430;stroke-width:0.0028;stroke-linecap:butt;stroke-linejoin:miter;stroke-miterlimit:2.61310005;stroke-dasharray:none;stroke-dashoffset:0;paint-order:stroke" />
</g>
	<g
   id="g4759"
   transform="matrix(0.14,0,0,-0.14,58.50331,10.35129)">
<path
   inkscape:connector-curvature="0"
   id="path4757"
   d="m 2080.67,1310.38 c 41.9,-51.59 61.5,-108.63 58.79,-171.5 -5.19,-89.33 -62.86,-188.216 -173.03,-295.763 -271.31,-261.578 -571.7,-392.363 -901.16,-392.363 -48.93,0 -95.375,2.57 -139.372,7.703 27.786,-1.477 55.239,-2.094 82.012,-2.094 360.2,0 664.94,151.867 921.22,400.496 103.64,100.543 212.53,240.651 174.26,394.021 -5.25,21.06 -12.98,40.87 -22.72,59.5"
   transform="translate(-1532.8,-880.57)"
   style="opacity:1;fill:#66c430;fill-rule:nonzero;stroke:none;stroke-width:1;stroke-linecap:butt;stroke-linejoin:miter;stroke-miterlimit:10;stroke-dasharray:none;stroke-dashoffset:0;paint-order:stroke" />
</g>
	<g
   id="g4763"
   transform="matrix(0.14,0,0,-0.14,58.50331,10.35129)">
<path
   inkscape:connector-curvature="0"
   id="path4761"
   d="m 2080.67,1310.38 c 41.9,-51.59 61.5,-108.63 58.79,-171.5 -5.19,-89.33 -62.86,-188.216 -173.03,-295.763 -271.31,-261.578 -571.7,-392.363 -901.16,-392.363 -48.93,0 -95.375,2.57 -139.372,7.703 27.786,-1.477 55.239,-2.094 82.012,-2.094 360.2,0 664.94,151.867 921.22,400.496 103.64,100.543 212.53,240.651 174.26,394.021 -5.25,21.06 -12.98,40.87 -22.72,59.5 z"
   transform="translate(-1532.8,-880.57)"
   style="opacity:1;fill:none;fill-rule:nonzero;stroke:#66c430;stroke-width:0.0028;stroke-linecap:butt;stroke-linejoin:miter;stroke-miterlimit:2.61310005;stroke-dasharray:none;stroke-dashoffset:0;paint-order:stroke" />
</g>
</g><g
     id="g4822"
     transform="matrix(1.57,0,0,1.57,348.07556,45.339868)">
<filter
   width="1.4"
   x="-0.2"
   height="1.4"
   y="-0.2"
   id="SVGID_327667">
	<feGaussianBlur
   id="feGaussianBlur4805"
   stdDeviation="0"
   in="SourceAlpha" />
	<feOffset
   id="feOffset4807"
   result="oBlur"
   dy="0"
   dx="0" />
	<feFlood
   id="feFlood4809"
   flood-opacity="1"
   flood-color="rgb(0,0,0)" />
	<feComposite
   id="feComposite4811"
   operator="in"
   in2="oBlur" />
	<feMerge
   id="feMerge4817">
		<feMergeNode
   id="feMergeNode4813" />
		<feMergeNode
   id="feMergeNode4815"
   in="SourceGraphic" />
	</feMerge>
</filter>
<path
   inkscape:connector-curvature="0"
   id="path4820"
   d="m 1.41,0.42 v 0 q 0,-2.08 4.65,-10.47 v 0 q 2.73,-4.94 4.85,-7.92 2.13,-2.99 4.06,-4.11 v 0 q 0.84,0 2.51,0.73 1.67,0.72 1.78,1.14 v 0 q -0.91,1.87 -2.22,6.59 -1.31,4.73 -1.86,8.82 v 0 q 2.06,-4.91 5.61,-10.35 3.54,-5.45 5.58,-6.93 v 0 q 0.83,0 2.5,0.73 1.67,0.72 1.79,1.14 v 0 q -1.2,2.15 -2.12,5.77 -0.93,3.63 -1.35,7.17 -0.43,3.55 -0.43,6.49 v 0 q 0,1.92 0.06,3.01 v 0 q -0.91,0 -2.18,-0.41 -1.28,-0.41 -1.6,-0.9 v 0 Q 23.01,0.35 23.01,-0.81 v 0 q 0,-6.92 2.13,-14.94 v 0 q 0.25,-0.95 0.57,-2.63 v 0 q -1.25,0.6 -2.96,2.93 -1.71,2.32 -3.26,5.3 -1.55,2.97 -2.71,6.39 -1.16,3.42 -1.36,5.99 v 0 q -0.08,0.03 -0.36,0.03 v 0 Q 14.22,2.26 13.02,1.78 11.81,1.3 11.65,0.92 v 0 Q 11.62,0.35 11.62,-0.81 v 0 q 0,-6.92 2.12,-14.94 v 0 q 0.31,-1.14 0.54,-2.46 v 0 q -1.08,0.85 -2.73,3.2 -1.65,2.35 -3.25,5.26 -1.61,2.91 -2.86,6.24 -1.25,3.33 -1.48,5.8 v 0 Q 2.52,1.86 1.96,1.45 1.41,1.04 1.41,0.42 Z m 28.97,-5.69 v 0 q 0,-1.66 0.71,-3.31 0.71,-1.64 1.85,-2.88 1.13,-1.23 2.66,-1.99 1.52,-0.77 3.06,-0.77 v 0 q 1.55,0 2.39,0.78 0.84,0.78 0.84,2.22 v 0 q 0,1.38 -0.7,2.5 -0.7,1.13 -1.57,1.13 v 0 q -0.36,0 -0.73,-0.22 -0.36,-0.22 -0.61,-0.58 v 0 q 2,-1.83 2,-3.34 v 0 q 0,-0.87 -0.69,-0.87 v 0 q -0.58,0 -1.5,0.58 -0.93,0.58 -1.75,1.49 v 0 q -2.63,2.96 -2.63,6.87 v 0 q 0,2.4 1.08,2.91 v 0 q 0.89,-0.11 2.35,-0.83 1.46,-0.72 2.84,-1.75 v 0 q 0.11,0.09 0.21,0.28 0.09,0.19 0.09,0.33 v 0 q -0.98,1.23 -2.54,2.32 -1.56,1.09 -2.58,1.26 v 0 q -1.98,-0.17 -3.38,-1.97 -1.4,-1.81 -1.4,-4.16 z"
   transform="translate(-21.65,9.89)"
   style="opacity:1;fill:#ffffff;fill-rule:nonzero;stroke:none;stroke-width:0;stroke-linecap:butt;stroke-linejoin:miter;stroke-miterlimit:4;stroke-dasharray:none;stroke-dashoffset:0;paint-order:stroke;filter:url(#SVGID_327667)" />
</g><path
     sodipodi:nodetypes="cc"
     inkscape:connector-curvature="0"
     id="path1103"
     d="m 349.50989,397.8007 c 41.58634,14.65268 88.82338,19.33353 149.91338,-0.43202"
     style="fill:#ffffff;fill-opacity:1;stroke:#ffffff;stroke-width:1px;stroke-linecap:butt;stroke-linejoin:miter;stroke-opacity:1" /></g></svg>