<svg xmlns="http://www.w3.org/2000/svg" version="1.1" viewBox="0 0 16 16" fill="none">
  <path d="M12 0H4a4 4 0 0 0-4 4v8a4 4 0 0 0 4 4h8a4 4 0 0 0 4-4V4a4 4 0 0 0-4-4" fill="url(#a)"/>
  <path d="M8.407 5.298a3.27 3.27 0 0 1 2.102.774.323.323 0 0 0 .443-.009l.6-.61a.31.31 0 0 0-.016-.455 4.8 4.8 0 0 0-1.616-.906l.19-.897a.315.315 0 0 0-.31-.379H8.629a.32.32 0 0 0-.311.25l-.17.797c-1.56.076-2.88.847-2.88 2.426 0 1.367 1.09 1.952 2.244 2.358 1.09.406 1.666.556 1.666 1.127s-.576.931-1.424.931a3.14 3.14 0 0 1-2.215-.868.32.32 0 0 0-.444 0l-.652.636a.314.314 0 0 0 0 .453c.53.5 1.178.858 1.884 1.04l-.175.834a.324.324 0 0 0 .308.389h1.18a.32.32 0 0 0 .313-.25l.17-.799c1.863-.12 3-1.117 3-2.587 0-1.351-1.138-1.92-2.52-2.388-.789-.286-1.47-.48-1.47-1.067s.637-.8 1.274-.8" fill="#fff"/>
  <defs>
    <linearGradient id="a" x1="0" y1="8" x2="16" y2="8" gradientUnits="userSpaceOnUse">
      <stop stop-color="#00C244"/>
      <stop offset="1" stop-color="#00D64B"/>
    </linearGradient>
  </defs>
</svg>
